HIERARCHY
ROOT hip
{
  OFFSET 0 0 0
  CHANNELS 6 Xposition Yposition Zposition Zrotation Yrotation Xrotation
  JOINT abdomen
  {
    OFFSET 0 20.6881 -0.73152
    CHANNELS 3 Zrotation Xrotation Yrotation
    JOINT chest
    {
      OFFSET 0 11.7043 -0.48768
      CHANNELS 3 Zrotation Xrotation Yrotation
      JOINT neck
      {
        OFFSET 0 22.1894 -2.19456
        CHANNELS 3 Zrotation Xrotation Yrotation
        JOINT head
        {
          OFFSET -0.24384 7.07133 1.2192
          CHANNELS 3 Zrotation Xrotation Yrotation
          JOINT leftEye
          {
            OFFSET 4.14528 8.04674 8.04672
            CHANNELS 3 Zrotation Xrotation Yrotation
            End Site
            {
              OFFSET 1 0 0
            }
          }
          JOINT rightEye
          {
            OFFSET -3.6576 8.04674 8.04672
            CHANNELS 3 Zrotation Xrotation Yrotation
            End Site
            {
              OFFSET 1 0 0
            }
          }
        }
      }
      JOINT rCollar
      {
        OFFSET -2.68224 19.2634 -4.8768
        CHANNELS 3 Zrotation Xrotation Yrotation
        JOINT rShldr
        {
          OFFSET -8.77824 -1.95073 1.46304
          CHANNELS 3 Zrotation Xrotation Yrotation
          JOINT rForeArm
          {
            OFFSET -28.1742 -1.7115 0.48768
            CHANNELS 3 Zrotation Xrotation Yrotation
            JOINT rHand
            {
              OFFSET -22.5879 0.773209 7.07136
              CHANNELS 3 Zrotation Xrotation Yrotation
              JOINT rThumb1
              {
                OFFSET -1.2192 -0.487915 3.41376
                CHANNELS 3 Zrotation Xrotation Yrotation
                JOINT rThumb2
                {
                  OFFSET -3.37035 -0.52449 3.41376
                  CHANNELS 3 Zrotation Xrotation Yrotation
                  End Site
                  {
                    OFFSET -1.78271 -1.18214 1.43049
                  }
                }
              }
              JOINT rIndex1
              {
                OFFSET -7.75947 0.938293 5.60832
                CHANNELS 3 Zrotation Xrotation Yrotation
                JOINT rIndex2
                {
                  OFFSET -2.54057 -0.884171 1.56538
                  CHANNELS 3 Zrotation Xrotation Yrotation
                  End Site
                  {
                    OFFSET -1.62519 -0.234802 1.16502
                  }
                }
              }
              JOINT rMid1
              {
                OFFSET -8.24714 1.18213 3.41376
                CHANNELS 3 Zrotation Xrotation Yrotation
                JOINT rMid2
                {
                  OFFSET -3.10165 -0.590103 1.0647
                  CHANNELS 3 Zrotation Xrotation Yrotation
                  End Site
                  {
                    OFFSET -2.48547 -0.328903 0.83742
                  }
                }
              }
              JOINT rRing1
              {
                OFFSET -8.82822 0.546677 1.51678
                CHANNELS 3 Zrotation Xrotation Yrotation
                JOINT rRing2
                {
                  OFFSET -2.60934 -0.819778 -0.0198488
                  CHANNELS 3 Zrotation Xrotation Yrotation
                  End Site
                  {
                    OFFSET -2.33842 -0.294052 0.168128
                  }
                }
              }
              JOINT rPinky1
              {
                OFFSET -8.27202 -0.0477905 -0.4584
                CHANNELS 3 Zrotation Xrotation Yrotation
                JOINT rPinky2
                {
                  OFFSET -1.82734 -0.647385 -0.700984
                  CHANNELS 3 Zrotation Xrotation Yrotation
                  End Site
                  {
                    OFFSET -1.69225 -0.51767 -0.607171
                  }
                }
              }
            }
          }
        }
      }
      JOINT lCollar
      {
        OFFSET 2.68224 19.2634 -4.8768
        CHANNELS 3 Zrotation Xrotation Yrotation
        JOINT lShldr
        {
          OFFSET 8.77824 -1.95073 1.46304
          CHANNELS 3 Zrotation Xrotation Yrotation
          JOINT lForeArm
          {
            OFFSET 28.1742 -1.7115 0.48768
            CHANNELS 3 Zrotation Xrotation Yrotation
            JOINT lHand
            {
              OFFSET 22.5879 0.773209 7.07136
              CHANNELS 3 Zrotation Xrotation Yrotation
              JOINT lThumb1
              {
                OFFSET 1.2192 -0.487915 3.41376
                CHANNELS 3 Zrotation Xrotation Yrotation
                JOINT lThumb2
                {
                  OFFSET 3.37035 -0.52449 3.41376
                  CHANNELS 3 Zrotation Xrotation Yrotation
                  End Site
                  {
                    OFFSET 1.78271 -1.18214 1.43049
                  }
                }
              }
              JOINT lIndex1
              {
                OFFSET 7.75947 0.938293 5.60832
                CHANNELS 3 Zrotation Xrotation Yrotation
                JOINT lIndex2
                {
                  OFFSET 2.54057 -0.884171 1.56538
                  CHANNELS 3 Zrotation Xrotation Yrotation
                  End Site
                  {
                    OFFSET 1.62519 -0.234802 1.16502
                  }
                }
              }
              JOINT lMid1
              {
                OFFSET 8.24714 1.18213 3.41376
                CHANNELS 3 Zrotation Xrotation Yrotation
                JOINT lMid2
                {
                  OFFSET 3.10165 -0.590103 1.0647
                  CHANNELS 3 Zrotation Xrotation Yrotation
                  End Site
                  {
                    OFFSET 2.48547 -0.328903 0.83742
                  }
                }
              }
              JOINT lRing1
              {
                OFFSET 8.82822 0.546677 1.51678
                CHANNELS 3 Zrotation Xrotation Yrotation
                JOINT lRing2
                {
                  OFFSET 2.60934 -0.819778 -0.0198488
                  CHANNELS 3 Zrotation Xrotation Yrotation
                  End Site
                  {
                    OFFSET 2.33842 -0.294052 0.168128
                  }
                }
              }
              JOINT lPinky1
              {
                OFFSET 8.27202 -0.0477905 -0.4584
                CHANNELS 3 Zrotation Xrotation Yrotation
                JOINT lPinky2
                {
                  OFFSET 1.82734 -0.647385 -0.700984
                  CHANNELS 3 Zrotation Xrotation Yrotation
                  End Site
                  {
                    OFFSET 1.69225 -0.51767 -0.607171
                  }
                }
              }
            }
          }
        }
      }
    }
  }
  JOINT rButtock
  {
    OFFSET -8.77824 4.35084 1.2192
    CHANNELS 3 Zrotation Xrotation Yrotation
    JOINT rThigh
    {
      OFFSET 0 -1.70687 -2.19456
      CHANNELS 3 Zrotation Xrotation Yrotation
      JOINT rShin
      {
        OFFSET 0 -36.8199 0.73152
        CHANNELS 3 Zrotation Xrotation Yrotation
        JOINT rFoot
        {
          OFFSET 0.73152 -45.1104 -5.12064
          CHANNELS 3 Zrotation Xrotation Yrotation
          End Site
          {
            OFFSET -1.1221 -3.69964 12.103
          }
        }
      }
    }
  }
  JOINT lButtock
  {
    OFFSET 8.77824 4.35084 1.2192
    CHANNELS 3 Zrotation Xrotation Yrotation
    JOINT lThigh
    {
      OFFSET 0 -1.70687 -2.19456
      CHANNELS 3 Zrotation Xrotation Yrotation
      JOINT lShin
      {
        OFFSET 0 -36.8199 0.73152
        CHANNELS 3 Zrotation Xrotation Yrotation
        JOINT lFoot
        {
          OFFSET -0.73152 -45.1104 -5.12064
          CHANNELS 3 Zrotation Xrotation Yrotation
          End Site
          {
            OFFSET 1.1221 -3.69964 12.103
          }
        }
      }
    }
  }
}
MOTION
Frames:	9
Frame Time:	0.00833333
82.8068 75.678 18.359 -23.3259 -75.0171 -326.183 2.08522 28.0575 -1.19071 4.3749 -4.36922 -0.250015 -11.1974 11.6004 -17.3343 23.0867 -12.462 -30.7241 -0.0 0.0 0.0 -0.0 0.0 0.0 -5.20483e-13 -1.64705e-12 2.41562e-13 14.6748 -79.1698 -21.1721 -15.2293 -7.99059 28.0616 -3.56237 -46.0317 -8.37633 -1.88882e-09 1.05806e-08 1.42648e-09 -3.29232e-09 1.69599e-08 2.38965e-09 -1.88882e-09 1.05806e-08 1.42647e-09 7.73091 5.47488 0.417314 -1.88882e-09 1.05806e-08 1.42647e-09 2.90554 0.965183 0.102902 -1.88882e-09 1.05806e-08 1.42647e-09 10.2786 0.731801 0.0259123 -1.88883e-09 1.05806e-08 1.42647e-09 2.22167 -0.733487 -0.20892 -5.20523e-13 -1.64704e-12 2.41419e-13 -69.4854 -6.44779 8.91648 14.1208 -7.0522 -25.7976 0.0502955 6.34043 -0.894878 5.28146e-09 6.49057e-09 6.80154e-09 9.16504e-09 1.11761e-08 1.17262e-08 5.28146e-09 6.49058e-09 6.80155e-09 -7.73091 5.47488 -0.417314 5.28146e-09 6.49057e-09 6.80154e-09 -2.90554 0.965183 -0.102902 5.28145e-09 6.49057e-09 6.80154e-09 -10.2786 0.731801 -0.0259123 5.28147e-09 6.49057e-09 6.80153e-09 -2.22167 -0.733487 0.20892 -2.03217e-16 0.0 -3.88251e-19 -14.6297 -32.731 -11.898 -0.391835 44.6653 0.923253 1.54848 -16.4204 3.69023 2.03217e-16 0.0 3.88251e-19 23.3454 -38.9323 16.8178 1.9156 69.2106 -2.43695 -1.78409 -13.8144 -4.60095
82.5275 75.7593 19.0204 -21.4905 -75.1258 -328.097 2.04246 28.3315 -1.39269 3.57582 -4.2057 -0.35207 -10.7331 11.3518 -17.0706 23.2576 -12.336 -30.2502 -0.0 0.0 0.0 -0.0 0.0 0.0 -6.3929e-13 -1.61632e-12 3.45885e-13 15.3903 -79.3154 -21.3606 -15.1175 -7.89251 27.8309 -3.43102 -45.394 -8.19179 -1.59364e-09 1.09472e-08 1.23785e-09 -2.77718e-09 1.78334e-08 2.07631e-09 -1.59364e-09 1.09472e-08 1.23784e-09 7.73091 5.47488 0.417314 -1.59364e-09 1.09472e-08 1.23784e-09 2.90554 0.965183 0.102902 -1.59364e-09 1.09472e-08 1.23784e-09 10.2786 0.731801 0.0259123 -1.59365e-09 1.09472e-08 1.23784e-09 2.22167 -0.733487 -0.20892 -6.39335e-13 -1.61632e-12 3.45786e-13 -68.8276 -6.09256 8.60499 14.1094 -7.04314 -25.7745 0.0531144 6.56262 -0.926411 5.6051e-09 7.5679e-09 7.23304e-09 9.72746e-09 1.3035e-08 1.24696e-08 5.6051e-09 7.56791e-09 7.23306e-09 -7.73091 5.47488 -0.417314 5.6051e-09 7.5679e-09 7.23305e-09 -2.90554 0.965183 -0.102902 5.60509e-09 7.5679e-09 7.23304e-09 -10.2786 0.731801 -0.0259123 5.60511e-09 7.5679e-09 7.23304e-09 -2.22167 -0.733487 0.20892 -2.03217e-16 0.0 -3.88251e-19 -14.7846 -32.2301 -11.7626 -0.37628 44.2455 0.936212 1.4572 -16.3898 3.34102 2.03217e-16 0.0 3.88251e-19 24.4328 -39.3583 16.9844 1.86773 68.9695 -2.44097 -0.776912 -14.0496 -1.75722
82.2429 75.879 19.5731 -20.8124 -75.1257 -328.789 2.27591 28.6362 -1.46093 3.32422 -4.2686 -0.366964 -10.4857 11.1343 -16.782 22.7851 -12.6734 -29.6606 -0.0 0.0 0.0 -0.0 0.0 0.0 -6.80963e-13 -7.37755e-13 4.71912e-13 14.2782 -79.3537 -22.6924 -14.9956 -7.78697 27.5787 -3.33652 -44.9244 -8.05814 -1.32328e-09 1.62317e-09 3.45866e-10 -2.28189e-09 1.99128e-09 5.46997e-10 -1.32328e-09 1.62315e-09 3.45858e-10 7.73091 5.47488 0.417314 -1.32328e-09 1.62319e-09 3.45859e-10 2.90554 0.965183 0.102902 -1.32328e-09 1.62317e-09 3.45857e-10 10.2786 0.731801 0.0259123 -1.32329e-09 1.62317e-09 3.4586e-10 2.22167 -0.733487 -0.20892 -6.81007e-13 -7.37761e-13 4.71792e-13 -68.7713 -5.72364 8.32268 14.0673 -7.0091 -25.6892 0.0601908 7.04436 -0.994948 5.26336e-09 9.4313e-09 8.08013e-09 9.14542e-09 1.62612e-08 1.3936e-08 5.26336e-09 9.43131e-09 8.08014e-09 -7.73091 5.47488 -0.417314 5.26336e-09 9.4313e-09 8.08013e-09 -2.90554 0.965183 -0.102902 5.26335e-09 9.4313e-09 8.08013e-09 -10.2786 0.731801 -0.0259123 5.26336e-09 9.4313e-09 8.08012e-09 -2.22167 -0.733487 0.20892 -2.03217e-16 0.0 -3.88251e-19 -14.4499 -31.7277 -11.2683 -0.358113 43.7027 0.946821 1.32825 -16.4444 2.86984 2.03217e-16 0.0 3.88251e-19 25.9929 -39.8149 17.3828 1.81017 68.6349 -2.43245 0.140594 -14.0987 0.789399
81.9953 75.9509 19.8806 -22.8531 -74.9426 -326.675 2.71131 28.9539 -1.46759 3.36686 -4.47232 -0.333681 -10.3441 10.9372 -16.4676 21.9074 -13.3425 -28.9772 -0.0 0.0 0.0 -0.0 0.0 0.0 -6.86709e-13 6.6412e-13 6.25513e-13 11.9779 -79.3257 -24.809 -14.8576 -7.66843 27.2946 -3.25847 -44.531 -7.94737 -9.98682e-10 -1.49359e-08 -1.0952e-09 -1.67495e-09 -2.62647e-08 -1.9285e-09 -9.98679e-10 -1.49359e-08 -1.09521e-09 7.73091 5.47488 0.417314 -9.98683e-10 -1.49359e-08 -1.0952e-09 2.90554 0.965183 0.102902 -9.98677e-10 -1.49359e-08 -1.09521e-09 10.2786 0.731801 0.0259123 -9.9869e-10 -1.49359e-08 -1.0952e-09 2.22167 -0.733487 -0.20892 -6.86752e-13 6.64109e-13 6.25336e-13 -69.0476 -5.34416 8.05498 13.9991 -6.95402 -25.5516 0.0725566 7.7426 -1.09468 4.50999e-09 1.20511e-08 9.26327e-09 7.85608e-09 2.08005e-08 1.59862e-08 4.50998e-09 1.20511e-08 9.26328e-09 -7.73091 5.47488 -0.417314 4.50999e-09 1.20511e-08 9.26327e-09 -2.90554 0.965183 -0.102902 4.50998e-09 1.20511e-08 9.26327e-09 -10.2786 0.731801 -0.0259123 4.50999e-09 1.20511e-08 9.26326e-09 -2.22167 -0.733487 0.20892 -2.03217e-16 0.0 -3.88251e-19 -13.8018 -31.2079 -10.5307 -0.337696 43.0609 0.955743 1.16721 -16.5537 2.30379 2.03217e-16 0.0 3.88251e-19 27.8568 -40.2872 17.9375 1.74124 68.2006 -2.4121 1.01683 -14.004 3.22273
81.7736 75.993 20.1163 -26.1366 -74.5611 -323.373 3.17062 29.2437 -1.43786 3.50121 -4.68167 -0.284906 -10.3274 10.7314 -16.1837 21.0922 -13.9288 -28.346 -0.0 0.0 0.0 -0.0 0.0 0.0 -6.47259e-13 2.0596e-12 7.43712e-13 9.3559 -79.188 -27.156 -14.7387 -7.56667 27.0515 -3.19691 -44.216 -7.85961 -5.80649e-10 -3.11308e-08 -2.51783e-09 -9.08228e-10 -5.38628e-08 -4.36889e-09 -5.80646e-10 -3.11308e-08 -2.51784e-09 7.73091 5.47488 0.417314 -5.8065e-10 -3.11308e-08 -2.51783e-09 2.90554 0.965183 0.102902 -5.80641e-10 -3.11308e-08 -2.51784e-09 10.2786 0.731801 0.0259123 -5.80656e-10 -3.11308e-08 -2.51784e-09 2.22167 -0.733487 -0.20892 -6.47298e-13 2.05958e-12 7.43467e-13 -69.4206 -4.95068 7.76826 13.9313 -6.89931 -25.4155 0.0882147 8.48766 -1.20162 3.47871e-09 1.39747e-08 9.85066e-09 6.08192e-09 2.41391e-08 1.70087e-08 3.47871e-09 1.39747e-08 9.85068e-09 -7.73091 5.47488 -0.417314 3.47872e-09 1.39747e-08 9.85067e-09 -2.90554 0.965183 -0.102902 3.47871e-09 1.39747e-08 9.85067e-09 -10.2786 0.731801 -0.0259123 3.47872e-09 1.39747e-08 9.85066e-09 -2.22167 -0.733487 0.20892 -2.03217e-16 0.0 -3.88251e-19 -13.118 -30.6766 -9.77313 -0.316679 42.3731 0.963576 0.995296 -16.6648 1.71593 2.03217e-16 0.0 3.88251e-19 29.7371 -40.7598 18.5162 1.65981 67.6295 -2.37486 1.8132 -13.8184 5.46938
81.5503 76.0337 20.588 -26.7239 -74.4239 -322.74 3.47654 29.4646 -1.39722 3.52405 -4.7615 -0.253367 -10.4549 10.4881 -15.9869 20.7848 -14.0076 -27.9105 -0.0 0.0 0.0 -0.0 0.0 0.0 -5.53344e-13 2.91896e-12 7.63532e-13 7.30025 -78.911 -29.1586 -14.6751 -7.51219 26.9224 -3.1521 -43.9819 -7.79521 -2.9995e-11 -3.93623e-08 -3.35452e-09 6.63889e-11 -6.77313e-08 -5.79287e-09 -2.9991e-11 -3.93623e-08 -3.35452e-09 7.73091 5.47488 0.417314 -2.9995e-11 -3.93623e-08 -3.35451e-09 2.90554 0.965183 0.102902 -2.99854e-11 -3.93623e-08 -3.35452e-09 10.2786 0.731801 0.0259123 -3.00012e-11 -3.93623e-08 -3.35452e-09 2.22167 -0.733487 -0.20892 -5.53376e-13 2.91895e-12 7.63234e-13 -69.6533 -4.53953 7.42899 13.8908 -6.86662 -25.3346 0.10288 9.1099 -1.29132 2.30327e-09 1.37497e-08 8.91052e-09 4.04538e-09 2.37632e-08 1.53918e-08 2.30326e-09 1.37497e-08 8.91053e-09 -7.73091 5.47488 -0.417314 2.30327e-09 1.37497e-08 8.91052e-09 -2.90554 0.965183 -0.102902 2.30326e-09 1.37497e-08 8.91052e-09 -10.2786 0.731801 -0.0259123 2.30327e-09 1.37497e-08 8.91052e-09 -2.22167 -0.733487 0.20892 -2.03217e-16 0.0 -3.88251e-19 -12.6654 -30.146 -9.21372 -0.296731 41.6923 0.970893 0.836351 -16.7256 1.18003 2.03217e-16 0.0 3.88251e-19 31.3398 -41.221 18.9821 1.56605 66.8845 -2.31694 2.50155 -13.597 7.45866
81.3067 76.0861 21.1566 -25.6599 -74.5721 -323.63 3.57906 29.5915 -1.34939 3.3547 -4.62964 -0.250127 -10.8487 10.1962 -15.9237 21.3032 -13.3079 -27.7717 -0.0 0.0 0.0 -0.0 0.0 0.0 -3.64923e-13 2.97002e-12 6.23975e-13 6.18069 -78.4612 -30.5626 -14.6902 -7.52484 26.9535 -3.13187 -43.8736 -7.76583 9.2314e-10 -3.52453e-08 -3.35032e-09 1.70423e-09 -6.02283e-08 -5.75047e-09 9.23143e-10 -3.52453e-08 -3.35032e-09 7.73091 5.47488 0.417314 9.23141e-10 -3.52453e-08 -3.35031e-09 2.90554 0.965183 0.102902 9.23149e-10 -3.52453e-08 -3.35032e-09 10.2786 0.731801 0.0259123 9.23134e-10 -3.52453e-08 -3.35031e-09 2.22167 -0.733487 -0.20892 -3.64944e-13 2.97e-12 6.23638e-13 -69.6616 -4.10736 6.99254 13.886 -6.86272 -25.3252 0.114976 9.61346 -1.36407 7.1745e-10 9.91278e-09 5.1629e-09 1.27552e-09 1.71457e-08 8.92499e-09 7.17447e-10 9.91278e-09 5.16291e-09 -7.73091 5.47488 -0.417314 7.17452e-10 9.91279e-09 5.16289e-09 -2.90554 0.965183 -0.102902 7.17443e-10 9.91278e-09 5.1629e-09 -10.2786 0.731801 -0.0259123 7.17455e-10 9.91279e-09 5.16289e-09 -2.22167 -0.733487 0.20892 -2.03217e-16 0.0 -3.88251e-19 -12.5172 -29.6319 -8.92035 -0.278276 41.0305 0.977869 0.701239 -16.7229 0.724635 2.03217e-16 0.0 3.88251e-19 32.5608 -41.6648 19.2814 1.46109 65.9287 -2.23974 3.13815 -13.3694 9.33709
81.0403 76.1461 21.5514 -26.3675 -74.4831 -322.775 3.57354 29.651 -1.28171 3.11033 -4.37355 -0.256958 -11.4614 9.8729 -15.9534 22.3396 -12.1093 -27.8422 -0.0 0.0 0.0 -0.0 0.0 0.0 -9.94623e-14 2.53892e-12 3.73364e-13 5.53966 -77.8692 -31.6509 -14.7605 -7.58472 27.097 -3.13221 -43.8754 -7.76631 2.17138e-09 -2.36189e-08 -2.84245e-09 3.83212e-09 -3.97108e-08 -4.82781e-09 2.17139e-09 -2.36189e-08 -2.84245e-09 7.73091 5.47488 0.417314 2.17139e-09 -2.36189e-08 -2.84244e-09 2.90554 0.965183 0.102902 2.17139e-09 -2.36189e-08 -2.84245e-09 10.2786 0.731802 0.0259123 2.17138e-09 -2.36189e-08 -2.84244e-09 2.22167 -0.733487 -0.20892 -9.94686e-14 2.53891e-12 3.72991e-13 -69.5757 -3.65644 6.48892 13.9024 -6.87582 -25.3581 0.126199 10.0724 -1.4305 -1.24943e-09 3.59735e-09 -5.51432e-10 -2.16957e-09 6.2462e-09 -9.38527e-10 -1.24944e-09 3.59734e-09 -5.51421e-10 -7.73091 5.47488 -0.417314 -1.24943e-09 3.59735e-09 -5.51438e-10 -2.90554 0.965183 -0.102902 -1.24944e-09 3.59735e-09 -5.51429e-10 -10.2786 0.731801 -0.0259123 -1.24943e-09 3.59735e-09 -5.51436e-10 -2.22167 -0.733487 0.20892 -2.03217e-16 0.0 -3.88251e-19 -12.5221 -29.1267 -8.76922 -0.260482 40.36 0.98424 0.577409 -16.6847 0.307917 2.03217e-16 0.0 3.88251e-19 33.5603 -42.1005 19.4893 1.35031 64.7907 -2.15029 3.71306 -13.1092 11.0865
80.7776 76.1751 21.9184 -27.7527 -74.1684 -321.285 3.50126 29.6793 -1.19542 2.88395 -4.11252 -0.262687 -12.0576 9.53168 -16.0014 23.3892 -10.8066 -27.9776 -0.0 0.0 0.0 -0.0 0.0 0.0 1.66046e-13 1.9935e-12 1.12704e-13 4.99888 -77.2088 -32.6796 -14.852 -7.66285 27.2842 -3.13631 -43.8978 -7.77232 3.18808e-09 -1.07204e-08 -2.15159e-09 5.55547e-09 -1.71053e-08 -3.59774e-09 3.18809e-09 -1.07203e-08 -2.15159e-09 7.73091 5.47488 0.417314 3.18809e-09 -1.07203e-08 -2.15158e-09 2.90554 0.965183 0.102902 3.18809e-09 -1.07204e-08 -2.15159e-09 10.2786 0.731802 0.0259123 3.18808e-09 -1.07204e-08 -2.15157e-09 2.22167 -0.733487 -0.20892 1.66054e-13 1.9935e-12 1.12308e-13 -69.4816 -3.19183 5.9964 13.9322 -6.89983 -25.418 0.135065 10.4219 -1.48123 -3.02043e-09 -2.75451e-09 -5.98318e-09 -5.27379e-09 -4.71888e-09 -1.0315e-08 -3.02044e-09 -2.75452e-09 -5.98317e-09 -7.73091 5.47488 -0.417314 -3.02043e-09 -2.75451e-09 -5.98318e-09 -2.90554 0.965183 -0.102902 -3.02044e-09 -2.75451e-09 -5.98317e-09 -10.2786 0.731801 -0.0259123 -3.02043e-09 -2.75451e-09 -5.98318e-09 -2.22167 -0.733487 0.20892 -2.03217e-16 0.0 -3.88251e-19 -12.6053 -28.6109 -8.68856 -0.243131 39.6749 0.98989 0.455118 -16.6209 -0.101426 2.03217e-16 0.0 3.88251e-19 34.4374 -42.5415 19.6617 1.24038 63.532 -2.05339 4.10725 -12.7946 12.3918
